<svg width="124" height="80" viewBox="0 0 124 80" fill="none" xmlns="http://www.w3.org/2000/svg">
<path d="M34.9441 0.869629C32.225 0.869629 30.0248 3.06984 30.0248 5.78888V74.6584C30.0248 77.3775 32.225 79.5777 34.9441 79.5777H39.8633C42.5824 79.5777 44.7826 77.3775 44.7826 74.6584V47.6026H79.2174V74.6584C79.2174 77.3775 81.4176 79.5777 84.1366 79.5777H89.0559C91.7749 79.5777 93.9751 77.3775 93.9751 74.6584V5.78888C93.9751 3.06984 91.7749 0.869629 89.0559 0.869629H84.1366C81.4176 0.869629 79.2174 3.06984 79.2174 5.78888V32.8448H44.7826V5.78888C44.7826 3.06984 42.5824 0.869629 39.8633 0.869629H34.9441ZM17.7267 10.7081C15.0076 10.7081 12.8074 12.9084 12.8074 15.6274V64.8199C12.8074 67.539 15.0076 69.7392 17.7267 69.7392H25.1056V10.7081H17.7267ZM98.8944 10.7081V69.7392H106.273C108.992 69.7392 111.193 67.539 111.193 64.8199V15.6274C111.193 12.9084 108.992 10.7081 106.273 10.7081H98.8944ZM2.9689 32.8448C1.61419 32.8448 0.509277 33.9497 0.509277 35.3044V45.1429C0.509277 46.4976 1.61419 47.6026 2.9689 47.6026H7.88816V32.8448H2.9689ZM116.112 32.8448V47.6026H121.031C122.386 47.6026 123.491 46.4976 123.491 45.1429V35.3044C123.491 33.9497 122.386 32.8448 121.031 32.8448H116.112Z" fill="#EB5E28"/>
</svg>
